<?xml version="1.0" encoding="utf-8"?>
<!-- Generator: Adobe Illustrator 16.0.0, SVG Export Plug-In . SVG Version: 6.00 Build 0)  -->
<!DOCTYPE svg PUBLIC "-//W3C//DTD SVG 1.1//EN" "http://www.w3.org/Graphics/SVG/1.1/DTD/svg11.dtd">
<svg version="1.1" id="Layer_1" xmlns="http://www.w3.org/2000/svg" xmlns:xlink="http://www.w3.org/1999/xlink" x="0px" y="0px"
	 width="155.905px" height="155.905px" viewBox="0 0 155.905 155.905" enable-background="new 0 0 155.905 155.905"
	 xml:space="preserve">
<g>
	<g>
		<path d="M63.725,135.573h-1.279c0-8.06,0.005-11.837,0.017-11.332h1.246L63.725,135.573z"/>
		<path d="M72.868,127.238c0,0.809-0.314,1.493-0.943,2.055c-0.673,0.629-1.572,0.942-2.694,0.942c-0.303,0-0.618-0.022-0.943-0.067
			l0.084-0.135c1.089,0,1.919-0.252,2.492-0.757c0.539-0.472,0.808-1.111,0.808-1.92c0-0.729-0.258-1.336-0.774-1.818
			c-0.595-0.55-1.432-0.825-2.509-0.825c-0.146,0-0.297,0.006-0.455,0.017l-0.084,0.102l-0.017,10.742h-1.246v-11.332h2.458
			c1.224,0,2.183,0.31,2.879,0.927C72.554,125.729,72.868,126.419,72.868,127.238z"/>
		<path d="M84.184,133.839l-0.169,1.061c-1.336,0.562-2.661,0.842-3.974,0.842c-1.594,0-2.958-0.477-4.092-1.431
			c-1.269-1.055-1.903-2.464-1.903-4.227c0-1.661,0.522-3.053,1.566-4.176c1.1-1.189,2.531-1.784,4.294-1.784
			c1.605,0,3.02,0.448,4.243,1.347l-0.404,1.077c-0.483-0.752-1.038-1.273-1.667-1.565c-0.505-0.225-1.139-0.337-1.902-0.337
			c-1.482,0-2.661,0.584-3.536,1.751c-0.774,1.033-1.162,2.263-1.162,3.688c0,1.583,0.466,2.846,1.398,3.789
			c0.932,0.942,2.122,1.414,3.57,1.414c0.605,0,1.262-0.138,1.97-0.413C83.122,134.6,83.711,134.254,84.184,133.839z"/>
		<path d="M93.46,132.307c0,1.066-0.403,1.892-1.212,2.476c-0.73,0.527-1.65,0.791-2.762,0.791h-3.115v-11.332h3.166
			c0.953,0,1.723,0.259,2.307,0.774c0.539,0.494,0.809,1.101,0.809,1.818c0,0.606-0.209,1.162-0.623,1.667
			c-0.449,0.551-1.027,0.876-1.734,0.977C92.404,129.579,93.46,130.521,93.46,132.307z M91.305,127.02
			c0-1.032-0.466-1.729-1.397-2.088c-0.505-0.19-1.269-0.286-2.29-0.286v4.883c1.313,0,2.256-0.188,2.829-0.563
			C91.019,128.589,91.305,127.94,91.305,127.02z M92.046,132.525c0-0.887-0.265-1.565-0.792-2.037
			c-0.505-0.438-1.201-0.656-2.088-0.656c-0.168,0-0.426,0.005-0.773,0.017c-0.359,0-0.618,0-0.775,0c0,0.932,0,1.565,0,1.902
			c0,0.64,0,1.387,0,2.239c0,0.764,0,1.123,0,1.078c0.449,0.033,0.848,0.05,1.195,0.05
			C90.969,135.118,92.046,134.254,92.046,132.525z"/>
	</g>
	<g>
		<path fill-rule="evenodd" clip-rule="evenodd" fill="#939598" d="M77.424,56.502c1.775,0,3.221,1.447,3.221,3.222
			s-1.446,3.221-3.221,3.221c-1.774,0-3.221-1.446-3.221-3.221S75.65,56.502,77.424,56.502z M78.507,40.944l1.408-0.586
			l10.211-4.247c0.03,0.384,0.046,0.771,0.046,1.162c0,2.223-0.486,4.334-1.357,6.236L78.507,40.944z M78.647,42.378l10.136,1.197
			c-0.968,2.086-2.399,3.916-4.162,5.355L78.647,42.378z M87.17,28.279c0.492,0.655,0.932,1.351,1.313,2.081
			c0.92,1.8,1.475,3.684,1.639,5.677l-11.386,3.27l1.382-1.807L87.17,28.279z M64.264,36.31c0,0.75-0.171,1.468-0.477,2.104
			L62.646,37.8c0.672-0.572,0.889-1.188,0.908-1.998c-0.718-0.264-1.197-0.92-1.197-1.682v-2.249c0-0.781,0.502-1.449,1.2-1.699
			l-0.003-1.412c-1.72,1.223-3.081,1.25-3.337,0.927c-0.198-0.249-0.044-1.093,0.765-2.109c-1.947-1.155-2.633-2.461-2.44-2.905
			c0.177-0.408,1.388-0.771,3.263-0.34c0.143-2.755,1.457-4.169,2.108-4.169c0.652-0.001,1.967,1.414,2.109,4.169
			c1.875-0.432,3.086-0.068,3.264,0.34c0.193,0.444-0.493,1.751-2.44,2.905c0.809,1.017,0.963,1.86,0.765,2.109
			c-0.256,0.323-1.616,0.296-3.336-0.927l-0.002,1.31c1.037,0.053,1.794,0.843,1.794,1.802v2.249l-0.001,2.201
			c-0.002,2.253,1.374,4.075,3.283,4.744c1.027-1.907,2.729-3.623,4.928-5.036c-1.825-0.065-3.408-1.103-4.25-2.606h1.775
			c0.306,0.001,0.582,0.138,0.771,0.351c0.19,0.241,0.484,0.396,0.813,0.396c0.571,0,1.036-0.466,1.036-1.037
			c0-0.57-0.465-1.037-1.036-1.037H69.51c-0.085-0.367-0.13-0.75-0.13-1.143c0-0.259,0.02-0.512,0.057-0.76
			c0.079-0.494,0.509-0.874,1.024-0.874h2.677c-0.001-0.61,0.46-1.074,1.027-1.079h2.366v-1.925c1.77,0.796,3.008,2.577,3.008,4.638
			c0,0.859-0.216,1.67-0.596,2.382c2.461-1.967,4.041-4.991,4.041-8.374l-0.012-0.506c1.615,0.991,3.03,2.279,4.17,3.786
			l-8.17,8.468l-0.732,0.758c-1.655,1.924-1.824,4.385-0.356,6.206c0.257,0.321,0.566,0.63,0.927,0.905l0.706,0.54l5.045,3.86
			c-0.458,0.37-0.938,0.714-1.438,1.029c-0.879,0.578-1.836,1.052-2.842,1.42c0.34,0.603,0.71,1.184,1.109,1.742h13.972L83.16,55.29
			c1.263,1.283,2.044,3.041,2.044,4.976c0,3.908-3.187,7.096-7.095,7.096c-3.908,0-7.095-3.188-7.095-7.096
			c0-2.416,1.218-4.556,3.071-5.838c-2.815-1.855-4.787-4.218-5.522-6.839c-0.364,0.154-0.737,0.285-1.112,0.391
			c-0.107,0.384-0.214,0.817-0.059,1.17c0.308,0.537,0.345,1.216,0.039,1.803c-0.065,0.125-0.143,0.238-0.229,0.341
			c0.257-0.803-0.059-1.697-0.783-2.153c-0.458-0.261-0.873-0.02-0.871,0.354l0.005,0.735c0,0.318-0.256,0.58-0.573,0.59
			c-0.118,0-0.235-0.009-0.35-0.024c-0.226,0.718,0.004,1.514,0.585,1.999c-0.128-0.04-0.255-0.095-0.376-0.165
			c-0.721-0.417-1.06-1.247-0.89-2.022c-0.214-0.092-0.415-0.212-0.596-0.355c-0.618,0.502-0.85,1.35-0.576,2.095
			c-0.091-0.099-0.173-0.209-0.243-0.331c-0.438-0.757-0.281-1.698,0.322-2.279c-0.111-0.153-0.206-0.317-0.283-0.492
			c-0.788,0.125-1.414,0.743-1.549,1.527c-0.03-0.131-0.045-0.268-0.045-0.408c0-0.868,0.596-1.6,1.399-1.81
			c-0.013-0.092-0.022-0.186-0.024-0.281c-0.015-0.507,0.418-0.825,0.908-0.96l2.61-0.715c1.011-0.286,1.833-0.894,2.382-1.699
			c-2.363-1.546-3.988-4.929-3.988-7.753l0.002-0.189L64.264,36.31z M65.13,30.968c-0.029,0.786-0.59,1.441-1.333,1.613
			c0.119-0.221,0.191-0.471,0.203-0.734C64.49,31.731,64.901,31.403,65.13,30.968z M65.13,32.289
			c-0.029,0.787-0.59,1.441-1.333,1.612c0.119-0.22,0.191-0.47,0.203-0.733C64.49,33.053,64.901,32.725,65.13,32.289z M65.13,33.61
			c-0.029,0.787-0.59,1.441-1.333,1.612c0.119-0.221,0.191-0.47,0.203-0.733C64.49,34.373,64.901,34.047,65.13,33.61z
			 M75.202,29.742c0.224,0,0.406,0.182,0.406,0.406c0,0.224-0.183,0.406-0.406,0.406s-0.406-0.183-0.406-0.406
			C74.795,29.924,74.978,29.742,75.202,29.742z M75.202,29.319h1.348v0.212h-1.348c-0.337,0-0.613,0.272-0.617,0.608h-0.211
			c0.004-0.444,0.361-0.807,0.804-0.82H75.202z M72.006,33.222h-1.85c-1.178,0-3.003-1.319-3.058-2.957
			c0.368,1.277,1.71,2.054,3.103,2.054h0.643c0.083,0.001,0.308,0.021,0.498,0.205l0.171,0.18L72.006,33.222z M64.269,28.752
			c0-0.699,0.006-0.716,0.005-0.733c0-0.019-0.008-0.037-0.036-0.916l2.486,1.977l-2.196-2.177l3.609-1.759l-3.928,1.379
			l-0.296-5.499l-0.295,5.499l-3.928-1.379l3.609,1.759l-2.197,2.178l2.486-1.978c-0.054,1.692-0.032,0.195-0.03,1.649l0.355-0.262
			L64.269,28.752z"/>
		<path fill-rule="evenodd" clip-rule="evenodd" fill="#003E7E" d="M58.368,95.81V69.311h39.169V95.81
			c0,10.818-8.768,19.587-19.584,19.587C67.136,115.396,58.368,106.628,58.368,95.81z M70.851,106.37V76.224h2.777v2.757h2.757
			v-2.757h2.772v2.757h2.758v-2.757h2.761v30.364c-1.954,1.234-4.267,1.948-6.746,1.948
			C75.308,108.536,72.872,107.738,70.851,106.37z M79.149,83.364c0-0.769-0.622-1.391-1.39-1.391c-0.768,0-1.391,0.622-1.391,1.391
			v4.38h2.781V83.364z"/>
	</g>
</g>
</svg>
